<svg width="41" height="35" viewBox="0 0 41 35" fill="none" xmlns="http://www.w3.org/2000/svg">
<path d="M31.1241 0.321299C31.2431 0.219452 31.3845 0.138647 31.5402 0.0835136C31.6958 0.0283798 31.8627 0 32.0312 0C32.1998 0 32.3666 0.0283798 32.5223 0.0835136C32.678 0.138647 32.8194 0.219452 32.9384 0.321299L38.0634 4.69588C38.1827 4.79747 38.2774 4.91816 38.342 5.05102C38.4065 5.18389 38.4398 5.32633 38.4398 5.47018C38.4398 5.61404 38.4065 5.75647 38.342 5.88934C38.2774 6.02221 38.1827 6.14289 38.0634 6.24448L32.9384 10.6191C32.6978 10.8244 32.3715 10.9398 32.0312 10.9398C31.691 10.9398 31.3647 10.8244 31.1241 10.6191C30.8835 10.4137 30.7484 10.1352 30.7484 9.84477C30.7484 9.55435 30.8835 9.27582 31.1241 9.07046L34.0633 6.56383H5.125C4.44538 6.56383 3.7936 6.79428 3.31304 7.20447C2.83248 7.61467 2.5625 8.17101 2.5625 8.75112V22.9685C2.5625 23.2586 2.42751 23.5367 2.18723 23.7418C1.94695 23.9469 1.62106 24.0622 1.28125 24.0622C0.941441 24.0622 0.615551 23.9469 0.37527 23.7418C0.134989 23.5367 0 23.2586 0 22.9685V8.75112C0 7.59091 0.539954 6.47822 1.50108 5.65782C2.4622 4.83743 3.76577 4.37654 5.125 4.37654H34.0633L31.1241 1.8699C31.0048 1.76831 30.9101 1.64763 30.8456 1.51476C30.781 1.38189 30.7477 1.23945 30.7477 1.0956C30.7477 0.951748 30.781 0.809309 30.8456 0.676442C30.9101 0.543575 31.0048 0.42289 31.1241 0.321299ZM38.4375 26.2495C38.4375 26.8296 38.1675 27.3859 37.687 27.7961C37.2064 28.2063 36.5546 28.4367 35.875 28.4367H6.93669L9.87588 25.9301C9.995 25.8284 10.0895 25.7077 10.154 25.5749C10.2184 25.442 10.2516 25.2996 10.2516 25.1558C10.2516 25.012 10.2184 24.8696 10.154 24.7368C10.0895 24.6039 9.995 24.4832 9.87588 24.3815C9.75675 24.2798 9.61533 24.1992 9.45968 24.1441C9.30404 24.0891 9.13722 24.0608 8.96875 24.0608C8.80028 24.0608 8.63346 24.0891 8.47782 24.1441C8.32217 24.1992 8.18075 24.2798 8.06162 24.3815L2.93662 28.7561C2.81731 28.8577 2.72264 28.9784 2.65805 29.1112C2.59346 29.2441 2.56021 29.3865 2.56021 29.5304C2.56021 29.6742 2.59346 29.8167 2.65805 29.9495C2.72264 30.0824 2.81731 30.2031 2.93662 30.3047L8.06162 34.6793C8.30221 34.8846 8.62851 35 8.96875 35C9.30899 35 9.63529 34.8846 9.87588 34.6793C10.1165 34.4739 10.2516 34.1954 10.2516 33.905C10.2516 33.6146 10.1165 33.336 9.87588 33.1307L6.93669 30.624H35.875C37.2342 30.624 38.5378 30.1631 39.4989 29.3427C40.46 28.5224 41 27.4097 41 26.2495V12.0321C41 11.742 40.865 11.4638 40.6247 11.2587C40.3845 11.0536 40.0586 10.9384 39.7188 10.9384C39.3789 10.9384 39.053 11.0536 38.8128 11.2587C38.5725 11.4638 38.4375 11.742 38.4375 12.0321V26.2495ZM28.1875 17.5003C28.1875 19.2406 27.3776 20.9096 25.9359 22.1402C24.4942 23.3708 22.5389 24.0622 20.5 24.0622C18.4611 24.0622 16.5058 23.3708 15.0641 22.1402C13.6224 20.9096 12.8125 19.2406 12.8125 17.5003C12.8125 15.76 13.6224 14.0909 15.0641 12.8603C16.5058 11.6298 18.4611 10.9384 20.5 10.9384C22.5389 10.9384 24.4942 11.6298 25.9359 12.8603C27.3776 14.0909 28.1875 15.76 28.1875 17.5003Z" fill="#EEEEEE"/>
</svg>
