<svg width="18" height="35" viewBox="0 0 18 35" fill="none" xmlns="http://www.w3.org/2000/svg">
<path d="M14.283 0.148862C14.442 0.272977 14.5651 0.466028 14.6321 0.696475C14.6991 0.926923 14.706 1.18115 14.6518 1.41761L11.7252 14.2189H17.1251C17.2838 14.2188 17.439 14.2812 17.5716 14.3986C17.7042 14.5159 17.8084 14.6829 17.8713 14.879C17.9342 15.0752 17.9531 15.2918 17.9256 15.5022C17.8981 15.7126 17.8254 15.9075 17.7166 16.0629L4.71658 34.6567C4.59079 34.8367 4.42341 34.9541 4.24171 34.9897C4.06001 35.0253 3.87472 34.977 3.71602 34.8527C3.55732 34.7284 3.43459 34.5354 3.36782 34.3051C3.30104 34.0749 3.29418 33.821 3.34833 33.5848L6.27495 20.7814H0.87508C0.71639 20.7814 0.561156 20.719 0.42854 20.6017C0.295923 20.4843 0.19173 20.3173 0.128823 20.1212C0.0659163 19.9251 0.0470492 19.7084 0.0745509 19.4981C0.102053 19.2877 0.174719 19.0927 0.28358 18.9373L13.2836 0.343549C13.4092 0.163735 13.5763 0.0464181 13.7578 0.0106743C13.9392 -0.0250696 14.1243 0.0228615 14.283 0.146674V0.148862Z" fill="#EEEEEE"/>
</svg>
