<svg width="30" height="28" viewBox="0 0 30 28" fill="none" xmlns="http://www.w3.org/2000/svg">
<path d="M11.25 13.8722C13.6625 13.8722 15.625 12.0572 15.625 9.82613C15.625 7.59502 13.6625 5.78008 11.25 5.78008C8.8375 5.78008 6.875 7.59502 6.875 9.82613C6.875 12.0572 8.8375 13.8722 11.25 13.8722ZM11.25 8.09211C12.2875 8.09211 13.125 8.86664 13.125 9.82613C13.125 10.7856 12.2875 11.5602 11.25 11.5602C10.2125 11.5602 9.375 10.7856 9.375 9.82613C9.375 8.86664 10.2125 8.09211 11.25 8.09211ZM11.25 15.8952C8.325 15.8952 2.5 17.2477 2.5 19.9413V21.9643H20V19.9413C20 17.2477 14.175 15.8952 11.25 15.8952ZM5.425 19.6523C6.475 18.9818 9.0125 18.2072 11.25 18.2072C13.4875 18.2072 16.025 18.9818 17.075 19.6523H5.425ZM20.05 15.9646C21.5 16.9356 22.5 18.2304 22.5 19.9413V21.9643H27.5V19.9413C27.5 17.6061 23.125 16.2767 20.05 15.9646ZM18.75 13.8722C21.1625 13.8722 23.125 12.0572 23.125 9.82613C23.125 7.59502 21.1625 5.78008 18.75 5.78008C18.075 5.78008 17.45 5.93036 16.875 6.18468C17.6625 7.21353 18.125 8.47359 18.125 9.82613C18.125 11.1787 17.6625 12.4387 16.875 13.4676C17.45 13.7219 18.075 13.8722 18.75 13.8722Z" fill="#64CCC5"/>
</svg>
