<svg width="30" height="28" viewBox="0 0 30 28" fill="none" xmlns="http://www.w3.org/2000/svg">
<path d="M27.5 6.76136V20.2841C27.5 20.9039 27.255 21.4346 26.765 21.8764C26.275 22.3181 25.6867 22.5386 25 22.5379H5C4.3125 22.5379 3.72375 22.317 3.23375 21.8753C2.74375 21.4335 2.49917 20.9031 2.5 20.2841V6.76136C2.5 6.14157 2.745 5.6108 3.235 5.16906C3.725 4.72731 4.31334 4.50682 5 4.50757H25C25.6875 4.50757 26.2763 4.72844 26.7663 5.17018C27.2563 5.61193 27.5008 6.14232 27.5 6.76136ZM5 9.01515H25V6.76136H5V9.01515ZM5 13.5227V20.2841H25V13.5227H5Z" fill="#64CCC5"/>
</svg>
