<svg width="43" height="43" viewBox="0 0 43 43" fill="none" xmlns="http://www.w3.org/2000/svg">
<path d="M21.5 28.4511C22.5277 28.4511 23.5133 28.0764 24.24 27.4095C24.9667 26.7425 25.375 25.8379 25.375 24.8947C25.375 23.9515 24.9667 23.0469 24.24 22.38C23.5133 21.713 22.5277 21.3383 21.5 21.3383C20.4723 21.3383 19.4867 21.713 18.76 22.38C18.0333 23.0469 17.625 23.9515 17.625 24.8947C17.625 25.8379 18.0333 26.7425 18.76 27.4095C19.4867 28.0764 20.4723 28.4511 21.5 28.4511ZM33.125 12.4474C34.1527 12.4474 35.1383 12.8221 35.865 13.489C36.5917 14.156 37 15.0605 37 16.0038V33.7857C37 34.7289 36.5917 35.6335 35.865 36.3005C35.1383 36.9674 34.1527 37.3421 33.125 37.3421H9.875C8.84729 37.3421 7.86166 36.9674 7.13496 36.3005C6.40826 35.6335 6 34.7289 6 33.7857V16.0038C6 15.0605 6.40826 14.156 7.13496 13.489C7.86166 12.8221 8.84729 12.4474 9.875 12.4474H11.8125V8.89098C11.8125 6.53294 12.8331 4.27149 14.6499 2.60411C16.4667 0.936725 18.9307 0 21.5 0C22.7722 0 24.0319 0.229972 25.2072 0.676785C26.3826 1.1236 27.4505 1.7785 28.3501 2.60411C29.2497 3.42971 29.9632 4.40984 30.4501 5.48855C30.9369 6.56725 31.1875 7.7234 31.1875 8.89098V12.4474H33.125ZM21.5 3.55639C19.9584 3.55639 18.48 4.11843 17.3899 5.11885C16.2999 6.11928 15.6875 7.47616 15.6875 8.89098V12.4474H27.3125V8.89098C27.3125 7.47616 26.7001 6.11928 25.6101 5.11885C24.52 4.11843 23.0416 3.55639 21.5 3.55639Z" fill="#F5F4F2"/>
</svg>
