<svg width="30" height="29" viewBox="0 0 30 29" fill="none" xmlns="http://www.w3.org/2000/svg">
<path d="M13.75 19.891H16.25V12.8706H13.75V19.891ZM15 10.5305C15.3542 10.5305 15.6513 10.4182 15.8913 10.1935C16.1313 9.9689 16.2508 9.6912 16.25 9.36047C16.25 9.02895 16.13 8.75087 15.89 8.52622C15.65 8.30157 15.3533 8.18963 15 8.19041C14.6458 8.19041 14.3488 8.30274 14.1088 8.52739C13.8688 8.75204 13.7492 9.02973 13.75 9.36047C13.75 9.69198 13.87 9.97007 14.11 10.1947C14.35 10.4194 14.6467 10.5313 15 10.5305ZM15 25.7413C12.1042 25.0588 9.71333 23.5034 7.8275 21.0751C5.94167 18.6468 4.99917 15.951 5 12.9876V5.85029L15 2.34012L25 5.85029V12.9876C25 15.9518 24.0571 18.648 22.1712 21.0763C20.2854 23.5045 17.895 25.0595 15 25.7413ZM15 23.2842C17.1667 22.6406 18.9583 21.3536 20.375 19.423C21.7917 17.4924 22.5 15.3473 22.5 12.9876V7.45912L15 4.82649L7.5 7.45912V12.9876C7.5 15.3473 8.20833 17.4924 9.625 19.423C11.0417 21.3536 12.8333 22.6406 15 23.2842Z" fill="#69C4C3"/>
</svg>
