<svg width="34" height="37" viewBox="0 0 34 37" fill="none" xmlns="http://www.w3.org/2000/svg">
<path d="M28.3957 19.6569C28.4544 25.2563 33.9393 27.1196 34 27.1434C33.9535 27.2747 33.1236 29.7987 31.1104 32.4057C29.37 34.6597 27.5636 36.9054 24.7181 36.9519C21.9224 36.9976 21.0233 35.4828 17.8268 35.4828C14.6312 35.4828 13.6323 36.9054 10.9856 36.9976C8.23905 37.0897 6.14752 34.5603 4.3928 32.3145C0.80687 27.721 -1.93345 19.3339 1.74612 13.6726C3.57402 10.8611 6.8408 9.08089 10.3864 9.03523C13.0834 8.98969 15.6291 10.643 17.2779 10.643C18.9255 10.643 22.0191 8.65476 25.2713 8.94673C26.6326 8.99698 30.4544 9.43395 32.9084 12.6168C32.7105 12.7255 28.3483 14.9757 28.3957 19.657M23.1413 5.90765C24.5995 4.34362 25.5809 2.16646 25.3131 0C23.2113 0.0748474 20.6698 1.2411 19.1621 2.80419C17.811 4.18851 16.6277 6.40404 16.947 8.52754C19.2898 8.68818 21.683 7.47262 23.1413 5.90765Z" fill="white"/>
</svg>
