<svg width="30" height="29" viewBox="0 0 30 29" fill="none" xmlns="http://www.w3.org/2000/svg">
<path d="M7.5 22.2311V11.7006C7.5 9.83867 8.29018 8.05302 9.6967 6.73645C11.1032 5.41988 13.0109 4.68024 15 4.68024C16.9891 4.68024 18.8968 5.41988 20.3033 6.73645C21.7098 8.05302 22.5 9.83867 22.5 11.7006V22.2311M7.5 22.2311H22.5M7.5 22.2311H5M22.5 22.2311H25M13.75 25.7413H16.25" stroke="#69C4C3" stroke-width="2.66667" stroke-linecap="round" stroke-linejoin="round"/>
<path d="M15 4.68023C15.6904 4.68023 16.25 4.15638 16.25 3.51018C16.25 2.86397 15.6904 2.34012 15 2.34012C14.3096 2.34012 13.75 2.86397 13.75 3.51018C13.75 4.15638 14.3096 4.68023 15 4.68023Z" stroke="#69C4C3" stroke-width="2.66667"/>
</svg>
