<svg width="29" height="35" viewBox="0 0 29 35" fill="none" xmlns="http://www.w3.org/2000/svg">
<path d="M14.5273 21.0333C14.0915 21.7619 13.0341 21.8273 12.9706 21.1296L12.5998 17.0342C12.5179 16.1339 12.1934 15.3314 11.652 14.6903C11.1106 14.0491 10.3672 13.587 9.48077 13.3405L5.45143 12.2183C4.76465 12.0269 5.02757 11.0198 5.83847 10.7358L10.5979 9.07009C11.6442 8.70352 12.6571 8.1323 13.5563 7.40171C14.4554 6.67111 15.2161 5.80122 15.778 4.86098L18.3339 0.586676C18.4285 0.427188 18.5682 0.284754 18.7332 0.179702C18.8981 0.0746488 19.0799 0.0123371 19.2524 0.00166318C19.425 -0.00901063 19.5796 0.0324987 19.6942 0.120262C19.8088 0.208026 19.8776 0.337567 19.8906 0.490398L20.2614 4.58582C20.3432 5.48585 20.6674 6.28822 21.2084 6.92936C21.7494 7.57051 22.4923 8.03281 23.3782 8.27966L27.4098 9.40168C27.5604 9.44279 27.6773 9.53322 27.7438 9.66007C27.8103 9.78691 27.823 9.9437 27.7801 10.1081C27.7371 10.2724 27.6408 10.4359 27.5048 10.5753C27.3689 10.7147 27.2001 10.8228 27.0228 10.8842L22.2634 12.5499C21.2173 12.9162 20.2047 13.4871 19.3057 14.2173C18.4067 14.9475 17.646 15.817 17.0838 16.7568L14.5273 21.0333ZM20.4165 31.5103C20.3596 31.6059 20.2756 31.6912 20.1766 31.7542C20.0776 31.8171 19.9686 31.8544 19.8651 31.8608C19.7616 31.8672 19.6688 31.8423 19.6 31.7898C19.5311 31.7373 19.4897 31.6597 19.4816 31.5681L19.259 29.1113C19.1587 28.0162 18.4664 27.1958 17.3886 26.8946L14.9701 26.2214C14.8799 26.1965 14.81 26.1421 14.7702 26.0659C14.7305 25.9897 14.7229 25.8957 14.7487 25.7971C14.7744 25.6985 14.8321 25.6004 14.9136 25.5167C14.9951 25.4331 15.0962 25.3681 15.2025 25.331L18.0577 24.3316C18.6855 24.1118 19.2932 23.7692 19.8327 23.331C20.3722 22.8928 20.8287 22.371 21.166 21.807L22.6998 19.2415C22.7568 19.1459 22.8407 19.0606 22.9397 18.9977C23.0387 18.9348 23.1477 18.8975 23.2512 18.8911C23.3547 18.8847 23.4475 18.9095 23.5164 18.962C23.5852 19.0146 23.6266 19.0921 23.6347 19.1837L23.8573 21.6405C23.9063 22.1807 24.1009 22.6622 24.4255 23.047C24.7502 23.4317 25.196 23.7092 25.7277 23.8572L28.1463 24.5305C28.2364 24.5554 28.3064 24.6098 28.3461 24.686C28.3859 24.7621 28.3934 24.8562 28.3677 24.9548C28.3419 25.0534 28.2842 25.1515 28.2027 25.2351C28.1213 25.3188 28.0202 25.3838 27.9138 25.4208L25.0586 26.4202C24.4309 26.64 23.8231 26.9826 23.2836 27.4208C22.7441 27.859 22.2876 28.3808 21.9503 28.9449L20.4165 31.5103ZM3.78347 34.7694C3.745 34.8323 3.68909 34.8882 3.62352 34.9295C3.55794 34.9707 3.48596 34.9951 3.41757 34.9993C3.34918 35.0035 3.28779 34.9874 3.24194 34.9531C3.19608 34.9187 3.16803 34.868 3.16169 34.8078L3.01292 33.1714C2.94717 32.4398 2.48511 31.8922 1.76484 31.6922L0.154015 31.2433C0.0949706 31.226 0.0493778 31.1895 0.0235765 31.1389C-0.00222284 31.0883 -0.00694966 31.0261 0.0100533 30.9609C0.0270563 30.8958 0.0649441 30.831 0.118449 30.7755C0.171956 30.72 0.238422 30.6765 0.308606 30.6512L2.21056 29.985C2.62949 29.8385 3.03507 29.61 3.39511 29.3175C3.75514 29.0251 4.05971 28.6768 4.28463 28.3004L5.30678 26.5915C5.34525 26.5286 5.40116 26.4727 5.46673 26.4314C5.53231 26.3902 5.60429 26.3658 5.67268 26.3616C5.74107 26.3574 5.80246 26.3735 5.84831 26.4078C5.89417 26.4422 5.92222 26.4929 5.92855 26.5531L6.07733 28.1895C6.10984 28.55 6.23957 28.8714 6.45623 29.1282C6.67288 29.385 6.97048 29.57 7.32541 29.6687L8.93397 30.1177C8.99301 30.1351 9.0386 30.1716 9.0644 30.2222C9.0902 30.2728 9.09493 30.335 9.07793 30.4001C9.06092 30.4652 9.02304 30.5301 8.96953 30.5856C8.91602 30.6411 8.84956 30.6845 8.77938 30.7099L6.87743 31.376C6.02739 31.6731 5.25953 32.2968 4.80335 33.0607L3.78347 34.7694Z" fill="#64CCC5"/>
</svg>
