<svg width="30" height="28" viewBox="0 0 30 28" fill="none" xmlns="http://www.w3.org/2000/svg">
<path d="M15 9.01515V18.0303M3.75 13.5227C3.75 14.8546 4.04099 16.1734 4.60636 17.4039C5.17172 18.6344 6.00039 19.7525 7.04505 20.6942C8.08971 21.636 9.3299 22.3831 10.6948 22.8927C12.0597 23.4024 13.5226 23.6648 15 23.6648C16.4774 23.6648 17.9403 23.4024 19.3052 22.8927C20.6701 22.3831 21.9103 21.636 22.955 20.6942C23.9996 19.7525 24.8283 18.6344 25.3936 17.4039C25.959 16.1734 26.25 14.8546 26.25 13.5227C26.25 12.1908 25.959 10.872 25.3936 9.64153C24.8283 8.41104 23.9996 7.29299 22.955 6.35121C21.9103 5.40944 20.6701 4.66238 19.3052 4.15269C17.9403 3.64301 16.4774 3.38068 15 3.38068C13.5226 3.38068 12.0597 3.64301 10.6948 4.15269C9.3299 4.66238 8.08971 5.40944 7.04505 6.35121C6.00039 7.29299 5.17172 8.41104 4.60636 9.64153C4.04099 10.872 3.75 12.1908 3.75 13.5227Z" stroke="#64CCC5" stroke-width="2.66667" stroke-linecap="round" stroke-linejoin="round"/>
</svg>
