<svg width="39" height="37" viewBox="0 0 39 37" fill="none" xmlns="http://www.w3.org/2000/svg">
<path d="M9.75 29.2916H14.625V20.0416H24.375V29.2916H29.25V15.4166L19.5 8.47915L9.75 15.4166V29.2916ZM9.75 32.375C8.85625 32.375 8.09088 32.0728 7.45388 31.4685C6.81688 30.8641 6.49892 30.1385 6.5 29.2916V15.4166C6.5 14.9285 6.61538 14.466 6.84613 14.0291C7.07688 13.5923 7.39484 13.2326 7.8 12.95L17.55 6.01248C17.8479 5.80692 18.1594 5.65276 18.4844 5.54998C18.8094 5.4472 19.1479 5.39581 19.5 5.39581C19.8521 5.39581 20.1906 5.4472 20.5156 5.54998C20.8406 5.65276 21.1521 5.80692 21.45 6.01248L31.2 12.95C31.6063 13.2326 31.9248 13.5923 32.1555 14.0291C32.3863 14.466 32.5011 14.9285 32.5 15.4166V29.2916C32.5 30.1396 32.1815 30.8657 31.5445 31.47C30.9075 32.0744 30.1427 32.376 29.25 32.375H21.125V23.125H17.875V32.375H9.75Z" fill="#64CCC5"/>
</svg>
