<svg width="28" height="55" viewBox="0 0 28 55" fill="none" xmlns="http://www.w3.org/2000/svg">
<path d="M27.5 27.5C27.5 42.6878 15.1878 55 4.93559e-08 55C-3.60426e-07 21.4844 1.91614e-06 42.6878 1.91614e-06 27.5C1.91614e-06 12.3122 4.93559e-08 12.8906 4.93559e-08 0C15.1878 0 27.5 12.3122 27.5 27.5Z" fill="#0F172A" fill-opacity="0.61"/>
<path d="M27.5 27.5C27.5 42.6878 15.1878 55 4.93559e-08 55C-3.60426e-07 21.4844 1.91614e-06 42.6878 1.91614e-06 27.5C1.91614e-06 12.3122 4.93559e-08 12.8906 4.93559e-08 0C15.1878 0 27.5 12.3122 27.5 27.5Z" fill="#0F172A" fill-opacity="0.61"/>
<path d="M17.6551 20.0934L15.5083 21.9179L16.2804 24.7956L14.0488 23.0934L11.8171 24.7956L12.5893 21.9179L10.4425 20.0934L13.1493 20.0088L14.0488 17.1875L14.9482 20.0088L17.6551 20.0934ZM20.625 26.5919L19.2334 27.7674L19.734 29.6295L18.2915 28.5292L16.849 29.6295L17.3496 27.7674L15.958 26.5919L17.706 26.5448L18.2915 24.711L18.877 26.5448L20.625 26.5919ZM18.6903 31.247C19.3946 31.1718 20.1498 32.2815 19.7001 32.9868C19.4286 33.41 19.14 33.805 18.7837 34.1812C15.4658 37.8771 10.0946 37.8771 6.78523 34.1812C3.46742 30.5135 3.46742 24.5511 6.78523 20.8834C7.12465 20.5072 7.48104 20.1687 7.86288 19.8677C8.49929 19.3693 9.50058 20.2063 9.43269 20.9869C9.20359 23.6765 10.0182 26.4696 11.885 28.5292C12.7671 29.5121 13.8352 30.2658 15.012 30.7358C16.1889 31.2058 17.4452 31.3804 18.6903 31.247ZM17.2987 33.1467C14.8077 32.988 12.4544 31.8277 10.6801 29.8834C8.83871 27.8238 7.8544 25.1812 7.71863 22.5292C5.33422 25.4822 5.42756 30.0151 7.98168 32.8552C10.5443 35.6859 14.6343 35.7893 17.2987 33.1467Z" fill="#EEEEEE"/>
</svg>
