<svg width="35" height="37" viewBox="0 0 35 37" fill="none" xmlns="http://www.w3.org/2000/svg">
<path d="M31.7998 15.4807H30.6251V15.4167H17.5001V21.5834H25.7419C24.5395 25.1731 21.3085 27.75 17.5001 27.75C12.6679 27.75 8.75008 23.6084 8.75008 18.5C8.75008 13.3917 12.6679 9.25004 17.5001 9.25004C19.7306 9.25004 21.7599 10.1396 23.305 11.5926L27.4299 7.232C24.8253 4.66589 21.3413 3.08337 17.5001 3.08337C9.44643 3.08337 2.91675 9.98619 2.91675 18.5C2.91675 27.0139 9.44643 33.9167 17.5001 33.9167C25.5537 33.9167 32.0834 27.0139 32.0834 18.5C32.0834 17.4664 31.9828 16.4573 31.7998 15.4807Z" fill="white"/>
<path d="M4.59814 11.3244L9.3895 15.039C10.686 11.6458 13.8257 9.25004 17.5 9.25004C19.7305 9.25004 21.7598 10.1396 23.3049 11.5926L27.4298 7.232C24.8252 4.66589 21.3413 3.08337 17.5 3.08337C11.8986 3.08337 7.04085 6.42648 4.59814 11.3244Z" fill="white"/>
<path d="M17.4999 33.9167C21.2668 33.9167 24.6895 32.3928 27.2773 29.9145L22.7638 25.8769C21.2504 27.0936 19.4012 27.7516 17.4999 27.75C13.7068 27.75 10.486 25.1932 9.27272 21.625L4.51709 25.4984C6.93063 30.4911 11.8321 33.9167 17.4999 33.9167Z" fill="white"/>
<path d="M31.7997 15.4806H30.625V15.4166H17.5V21.5833H25.7418C25.1666 23.2918 24.1306 24.7847 22.7617 25.8776L22.7639 25.8761L27.2774 29.9137C26.958 30.2205 32.0833 26.2083 32.0833 18.5C32.0833 17.4663 31.9827 16.4573 31.7997 15.4806Z" fill="white"/>
</svg>
