<svg width="30" height="28" viewBox="0 0 30 28" fill="none" xmlns="http://www.w3.org/2000/svg">
<g opacity="0.9">
<path d="M5 9.14893H25V24.016C25 24.3193 24.8683 24.6101 24.6339 24.8246C24.3995 25.0391 24.0815 25.1596 23.75 25.1596H6.25C5.91848 25.1596 5.60054 25.0391 5.36612 24.8246C5.1317 24.6101 5 24.3193 5 24.016V9.14893ZM7.5 11.4362V22.8723H22.5V11.4362H7.5ZM11.25 13.7234H13.75V20.5851H11.25V13.7234ZM16.25 13.7234H18.75V20.5851H16.25V13.7234ZM8.75 5.71808V3.43085C8.75 3.12754 8.8817 2.83666 9.11612 2.62219C9.35054 2.40772 9.66848 2.28723 10 2.28723H20C20.3315 2.28723 20.6495 2.40772 20.8839 2.62219C21.1183 2.83666 21.25 3.12754 21.25 3.43085V5.71808H27.5V8.00532H2.5V5.71808H8.75ZM11.25 4.57447V5.71808H18.75V4.57447H11.25Z" fill="#64CCC5"/>
</g>
</svg>
