<svg width="28" height="55" viewBox="0 0 28 55" fill="none" xmlns="http://www.w3.org/2000/svg">
<path d="M3.8147e-06 27.5C3.8147e-06 12.3122 12.3122 0 27.5 0C27.5 33.5156 27.5 12.3122 27.5 27.5C27.5 42.6878 27.5 42.1094 27.5 55C12.3122 55 3.8147e-06 42.6878 3.8147e-06 27.5Z" fill="#49B6A9" fill-opacity="0.44"/>
<path d="M3.8147e-06 27.5C3.8147e-06 12.3122 12.3122 0 27.5 0C27.5 33.5156 27.5 12.3122 27.5 27.5C27.5 42.6878 27.5 42.1094 27.5 55C12.3122 55 3.8147e-06 42.6878 3.8147e-06 27.5Z" fill="#49B6A9" fill-opacity="0.44"/>
<path d="M2.57812 28.0202C2.57812 27.7754 2.66552 27.5714 2.85123 27.398C3.04787 27.2246 3.26635 27.143 3.50669 27.143H5.73524C5.98649 27.143 6.19405 27.2246 6.36884 27.398C6.53271 27.5714 6.6201 27.7754 6.6201 28.0202C6.6201 28.265 6.53271 28.469 6.36884 28.6322C6.20498 28.8056 5.98649 28.8872 5.73524 28.8872H3.51761C3.26635 28.8872 3.04787 28.8056 2.86216 28.6322C2.77269 28.5536 2.70136 28.4588 2.65252 28.3535C2.60368 28.2483 2.57836 28.1349 2.57812 28.0202ZM5.70246 20.9718C5.70246 20.7372 5.78986 20.5332 5.95372 20.3496C6.17221 20.1762 6.40162 20.0946 6.65287 20.0946C6.88228 20.0946 7.10077 20.1762 7.2974 20.3496L8.85957 21.8388C9.03436 21.9918 9.12175 22.1958 9.12175 22.4406C9.12175 22.6854 9.03436 22.8894 8.85957 23.0527C8.68478 23.2159 8.4663 23.2975 8.20412 23.2975C7.94194 23.2975 7.72345 23.2159 7.55959 23.0527L5.96464 21.594C5.87916 21.5116 5.81198 21.4141 5.76699 21.3074C5.72199 21.2006 5.70006 21.0865 5.70246 20.9718ZM5.87725 30.4682C5.87725 30.2438 5.96464 30.05 6.12851 29.9072C6.3033 29.7644 6.53271 29.6828 6.82766 29.6828H13.0654C13.3604 29.6828 13.5898 29.7542 13.7646 29.9072C13.9394 30.05 14.0267 30.2438 14.0267 30.4682C14.0267 30.7436 13.9394 30.9579 13.7755 31.1211C13.6007 31.2843 13.3713 31.3659 13.0654 31.3659H6.82766C6.53271 31.3659 6.3033 31.2843 6.12851 31.1313C5.95372 30.9783 5.87725 30.7436 5.87725 30.4682ZM6.95875 33.4773C6.95875 33.2529 7.05707 33.0489 7.26463 32.8653C7.35052 32.7796 7.45415 32.7112 7.56924 32.6641C7.68433 32.617 7.80847 32.5922 7.93413 32.5912C8.05979 32.5903 8.18435 32.6132 8.30024 32.6585C8.41614 32.7039 8.52095 32.7708 8.60832 32.8551C8.7831 33.0387 8.8705 33.2427 8.8705 33.4773C8.8705 33.7629 8.7831 33.9771 8.61924 34.1403C8.45538 34.3035 8.21504 34.3749 7.92009 34.3749C7.67227 34.3776 7.43315 34.2897 7.25371 34.1301C7.15661 34.0479 7.0799 33.9469 7.02896 33.8342C6.97801 33.7214 6.95405 33.5996 6.95875 33.4773ZM8.49907 28.316V28.2446C8.53185 26.9594 9.01251 25.8475 9.93015 24.8989C10.8478 23.9503 11.973 23.3791 13.3167 23.1751H13.3713C13.5789 23.1343 13.8629 23.1139 14.2015 23.1139C14.5402 23.1139 14.8242 23.1343 15.0318 23.1751H15.0755C16.4082 23.3689 17.5444 23.9503 18.462 24.8989C19.3796 25.8475 19.8603 26.9594 19.8931 28.2446V28.316C19.8931 28.4792 19.8057 28.5608 19.6418 28.5608H18.4074C18.2763 28.5608 18.1889 28.5302 18.1343 28.469C18.0858 28.4185 18.0586 28.3532 18.0578 28.2854C18.0141 27.3368 17.6208 26.5309 16.878 25.8679C16.1351 25.2049 15.2503 24.8785 14.2125 24.8785C13.1747 24.8785 12.2898 25.2049 11.5469 25.8679C10.8041 26.5309 10.4108 27.3368 10.3671 28.2854C10.3671 28.3466 10.3343 28.4078 10.2797 28.469C10.2251 28.5302 10.1268 28.5608 9.9957 28.5608H8.76125C8.58647 28.5608 8.49907 28.4792 8.49907 28.316ZM9.60242 33.4773C9.60242 33.2427 9.68982 33.0387 9.8646 32.8551C10.0394 32.6817 10.2688 32.5899 10.5528 32.5899H14.7368C14.9772 32.5899 15.1956 32.6817 15.3923 32.8653C15.5889 33.0489 15.6982 33.2529 15.6982 33.4773C15.6982 33.7425 15.5998 33.9669 15.4032 34.1301C15.2066 34.2933 14.9881 34.3749 14.7368 34.3749H10.5528C10.2579 34.3749 10.0285 34.2933 9.85368 34.1403C9.67889 33.9771 9.60242 33.7629 9.60242 33.4773ZM13.2511 20.1354V18.0647C13.2511 17.8199 13.3385 17.6159 13.5242 17.4425C13.7099 17.2691 13.9284 17.1875 14.1906 17.1875C14.4528 17.1875 14.6604 17.2691 14.8461 17.4425C15.0318 17.6159 15.1192 17.8199 15.1192 18.0647V20.1354C15.1192 20.37 15.0318 20.574 14.8461 20.727C14.6604 20.88 14.4419 20.9718 14.1906 20.9718C13.9394 20.9718 13.7099 20.8902 13.5352 20.7372C13.3604 20.5842 13.2511 20.37 13.2511 20.1354ZM14.7368 30.4682C14.7368 30.254 14.8351 30.0704 15.0318 29.9174C15.2284 29.7644 15.4469 29.6828 15.6982 29.6828C15.9494 29.6828 16.1679 29.7644 16.3645 29.9174C16.5612 30.0704 16.6595 30.254 16.6595 30.4682C16.6595 30.7334 16.5612 30.9579 16.3645 31.1211C16.1679 31.2843 15.9494 31.3659 15.6982 31.3659C15.4469 31.3659 15.2175 31.2843 15.0318 31.1211C14.9355 31.0383 14.8593 30.9371 14.8084 30.8245C14.7576 30.7119 14.7331 30.5904 14.7368 30.4682ZM16.4192 33.4773C16.4192 33.2427 16.5066 33.0387 16.6813 32.8551C16.8561 32.6817 17.0965 32.5899 17.3805 32.5899H19.4124C19.6964 32.5899 19.9258 32.6817 20.1006 32.8551C20.2754 33.0387 20.3628 33.2427 20.3628 33.4773C20.3628 33.7629 20.2754 33.9771 20.1116 34.1403C19.9477 34.3035 19.7074 34.3749 19.4124 34.3749H17.3805C17.0855 34.3749 16.8561 34.2933 16.6813 34.1403C16.5066 33.9771 16.4192 33.7629 16.4192 33.4773ZM17.3805 30.4682C17.3805 30.254 17.4788 30.0704 17.6754 29.9174C17.8721 29.7644 18.0906 29.6828 18.3309 29.6828H21.6847C21.925 29.6828 22.1216 29.7542 22.2746 29.9072C22.4275 30.0602 22.5149 30.2438 22.5149 30.4682C22.5149 30.7436 22.4384 30.9579 22.2855 31.1211C22.1325 31.2843 21.9359 31.3659 21.6847 31.3659H18.3309C18.0796 31.3659 17.8612 31.2843 17.6645 31.1211C17.5718 31.0362 17.4987 30.9345 17.4499 30.8222C17.401 30.7099 17.3774 30.5894 17.3805 30.4682ZM19.2813 22.4406C19.2813 22.1856 19.3687 21.9816 19.5326 21.8388L21.0838 20.3496C21.2805 20.1762 21.4989 20.0946 21.7283 20.0946C21.9796 20.0946 22.1981 20.1762 22.3838 20.3496C22.5695 20.523 22.6569 20.727 22.6569 20.9718C22.6569 21.2166 22.5695 21.4308 22.3947 21.594L20.7998 23.0425C20.6031 23.2057 20.3847 23.2873 20.1443 23.2873C19.8931 23.2873 19.6964 23.2057 19.5326 23.0425C19.4494 22.9631 19.3843 22.8689 19.3411 22.7655C19.2979 22.6621 19.2776 22.5516 19.2813 22.4406ZM21.7502 28.0202C21.7502 27.7856 21.8376 27.5816 22.0124 27.398C22.1981 27.2246 22.4057 27.143 22.6351 27.143H24.8418C25.093 27.143 25.3115 27.2348 25.4972 27.4082C25.6829 27.5816 25.7812 27.7856 25.7812 28.0202C25.7812 28.2548 25.6829 28.4588 25.4972 28.6322C25.3115 28.8056 25.093 28.8872 24.8418 28.8872H22.6351C22.3838 28.8872 22.1653 28.8056 22.0015 28.6322C21.8376 28.4588 21.7502 28.265 21.7502 28.0202Z" fill="#EEEEEE"/>
</svg>
