<svg width="20" height="20" viewBox="0 0 20 20" fill="none" xmlns="http://www.w3.org/2000/svg">
<path d="M14.5833 6.66672C15.7339 6.66672 16.6667 5.73397 16.6667 4.58338C16.6667 3.43279 15.7339 2.50005 14.5833 2.50005C13.4327 2.50005 12.5 3.43279 12.5 4.58338C12.5 5.73397 13.4327 6.66672 14.5833 6.66672Z" stroke="white" stroke-width="1.2" stroke-linejoin="round"/>
<path d="M5.41665 12.0833C6.56723 12.0833 7.49998 11.1506 7.49998 9.99998C7.49998 8.8494 6.56723 7.91665 5.41665 7.91665C4.26606 7.91665 3.33331 8.8494 3.33331 9.99998C3.33331 11.1506 4.26606 12.0833 5.41665 12.0833Z" stroke="white" stroke-width="1.2" stroke-linejoin="round"/>
<path d="M12.5002 5.65606L7.22475 8.85227" stroke="white" stroke-width="1.2" stroke-linecap="round" stroke-linejoin="round"/>
<path d="M7.22437 11.0683L12.7829 14.3529" stroke="white" stroke-width="1.2" stroke-linecap="round" stroke-linejoin="round"/>
<path d="M14.5833 13.3334C15.7339 13.3334 16.6667 14.2661 16.6667 15.4167C16.6667 16.5673 15.7339 17.5 14.5833 17.5C13.4327 17.5 12.5 16.5673 12.5 15.4167C12.5 14.2661 13.4327 13.3334 14.5833 13.3334Z" stroke="white" stroke-width="1.2" stroke-linejoin="round"/>
</svg>
