<svg width="30" height="29" viewBox="0 0 30 29" fill="none" xmlns="http://www.w3.org/2000/svg">
<path d="M22.5 9.36045H21.25V7.02034C21.25 3.79097 18.45 1.17004 15 1.17004C11.55 1.17004 8.75 3.79097 8.75 7.02034V9.36045H7.5C6.125 9.36045 5 10.4135 5 11.7006V23.4011C5 24.6882 6.125 25.7413 7.5 25.7413H22.5C23.875 25.7413 25 24.6882 25 23.4011V11.7006C25 10.4135 23.875 9.36045 22.5 9.36045ZM11.25 7.02034C11.25 5.07804 12.925 3.51016 15 3.51016C17.075 3.51016 18.75 5.07804 18.75 7.02034V9.36045H11.25V7.02034ZM22.5 23.4011H7.5V11.7006H22.5V23.4011ZM15 19.891C16.375 19.891 17.5 18.8379 17.5 17.5509C17.5 16.2638 16.375 15.2107 15 15.2107C13.625 15.2107 12.5 16.2638 12.5 17.5509C12.5 18.8379 13.625 19.891 15 19.891Z" fill="#69C4C3"/>
</svg>
