<svg width="26" height="37" viewBox="0 0 26 37" fill="none" xmlns="http://www.w3.org/2000/svg">
<path d="M13 28.1905C13.862 28.1905 14.6886 27.8192 15.2981 27.1584C15.9076 26.4975 16.25 25.6012 16.25 24.6667C16.25 23.7321 15.9076 22.8358 15.2981 22.175C14.6886 21.5141 13.862 21.1429 13 21.1429C12.138 21.1429 11.3114 21.5141 10.7019 22.175C10.0924 22.8358 9.75 23.7321 9.75 24.6667C9.75 25.6012 10.0924 26.4975 10.7019 27.1584C11.3114 27.8192 12.138 28.1905 13 28.1905ZM22.75 12.3333C23.612 12.3333 24.4386 12.7046 25.0481 13.3654C25.6576 14.0263 26 14.9226 26 15.8571V33.4762C26 34.4108 25.6576 35.3071 25.0481 35.9679C24.4386 36.6287 23.612 37 22.75 37H3.25C2.38805 37 1.5614 36.6287 0.951903 35.9679C0.34241 35.3071 0 34.4108 0 33.4762V15.8571C0 14.9226 0.34241 14.0263 0.951903 13.3654C1.5614 12.7046 2.38805 12.3333 3.25 12.3333H4.875V8.80952C4.875 6.47309 5.73102 4.23236 7.25476 2.58025C8.77849 0.928144 10.8451 0 13 0C14.067 0 15.1235 0.227865 16.1093 0.670585C17.0951 1.11331 17.9908 1.76221 18.7452 2.58025C19.4997 3.39829 20.0982 4.36944 20.5065 5.43826C20.9148 6.50709 21.125 7.65264 21.125 8.80952V12.3333H22.75ZM13 3.52381C11.7071 3.52381 10.4671 4.0807 9.55285 5.07196C8.63861 6.06322 8.125 7.40767 8.125 8.80952V12.3333H17.875V8.80952C17.875 7.40767 17.3614 6.06322 16.4471 5.07196C15.5329 4.0807 14.2929 3.52381 13 3.52381Z" fill="#F5F4F2"/>
</svg>
