<svg width="30" height="28" viewBox="0 0 30 28" fill="none" xmlns="http://www.w3.org/2000/svg">
<g opacity="0.9">
<path d="M15 2.28724C8.1 2.28724 2.5 7.41064 2.5 13.7234C2.5 20.0362 8.1 25.1596 15 25.1596H25C26.375 25.1596 27.5 24.1303 27.5 22.8723V13.7234C27.5 7.41064 21.9 2.28724 15 2.28724ZM15 22.8723C11.3875 22.8723 8.2125 21.1112 6.4625 18.4809L10.15 15.1072L14.2625 18.2979L20 13.0601V14.867H22.5V9.14894H16.25V11.4362H18.225L14.125 15.1872L10 12.008L5.3875 16.2394C5.1375 15.4388 5 14.5926 5 13.7234C5 8.68005 9.4875 4.57447 15 4.57447C20.5125 4.57447 25 8.68005 25 13.7234C25 18.7668 20.5125 22.8723 15 22.8723ZM24.375 23.4442C23.6875 23.4442 23.125 22.9295 23.125 22.3005C23.125 21.6715 23.6875 21.1569 24.375 21.1569C25.0625 21.1569 25.625 21.6715 25.625 22.3005C25.625 22.9295 25.0625 23.4442 24.375 23.4442Z" fill="#64CCC5"/>
</g>
</svg>
