<svg width="29" height="34" viewBox="0 0 29 34" fill="none" xmlns="http://www.w3.org/2000/svg">
<path fill-rule="evenodd" clip-rule="evenodd" d="M9.66667 9.91667C9.66667 8.41377 10.1759 6.97243 11.0823 5.90973C11.9887 4.84702 13.2181 4.25 14.5 4.25C15.7819 4.25 17.0113 4.84702 17.9177 5.90973C18.8241 6.97243 19.3333 8.41377 19.3333 9.91667C19.3333 11.4196 18.8241 12.8609 17.9177 13.9236C17.0113 14.9863 15.7819 15.5833 14.5 15.5833C13.2181 15.5833 11.9887 14.9863 11.0823 13.9236C10.1759 12.8609 9.66667 11.4196 9.66667 9.91667ZM9.66667 18.4167C8.06432 18.4167 6.5276 19.1629 5.39456 20.4913C4.26153 21.8197 3.625 23.6214 3.625 25.5C3.625 26.6272 4.00692 27.7082 4.68674 28.5052C5.36656 29.3022 6.28859 29.75 7.25 29.75H21.75C22.7114 29.75 23.6334 29.3022 24.3133 28.5052C24.9931 27.7082 25.375 26.6272 25.375 25.5C25.375 23.6214 24.7385 21.8197 23.6054 20.4913C22.4724 19.1629 20.9357 18.4167 19.3333 18.4167H9.66667Z" fill="#CECDCC"/>
</svg>
