<svg width="30" height="29" viewBox="0 0 30 29" fill="none" xmlns="http://www.w3.org/2000/svg">
<path d="M5 21.0611C5 19.8198 5.52678 18.6294 6.46447 17.7516C7.40215 16.8739 8.67392 16.3808 10 16.3808H20C21.3261 16.3808 22.5979 16.8739 23.5355 17.7516C24.4732 18.6294 25 19.8198 25 21.0611C25 21.6817 24.7366 22.2769 24.2678 22.7158C23.7989 23.1546 23.163 23.4012 22.5 23.4012H7.5C6.83696 23.4012 6.20107 23.1546 5.73223 22.7158C5.26339 22.2769 5 21.6817 5 21.0611Z" stroke="#69C4C3" stroke-width="2" stroke-linejoin="round"/>
<path d="M15 11.7006C17.0711 11.7006 18.75 10.129 18.75 8.19041C18.75 6.2518 17.0711 4.68024 15 4.68024C12.9289 4.68024 11.25 6.2518 11.25 8.19041C11.25 10.129 12.9289 11.7006 15 11.7006Z" stroke="#69C4C3" stroke-width="2"/>
</svg>
