<svg width="37" height="36" viewBox="0 0 37 36" fill="none" xmlns="http://www.w3.org/2000/svg">
<g clip-path="url(#clip0_179_994)">
<path d="M9.24992 27L5.70409 30.45C5.21589 30.925 4.65678 31.0315 4.02675 30.7695C3.39673 30.5075 3.08223 30.0385 3.08325 29.3625V6C3.08325 5.175 3.38542 4.4685 3.98975 3.8805C4.59409 3.2925 5.3197 2.999 6.16659 3H21.7374C21.6346 3.5 21.5833 4 21.5833 4.5C21.5833 5 21.6346 5.5 21.7374 6H6.16659V24H30.8333V11.85C31.4242 11.725 31.9767 11.556 32.4905 11.343C33.0044 11.13 33.4798 10.849 33.9166 10.5V24C33.9166 24.825 33.6144 25.5315 33.0101 26.1195C32.4058 26.7075 31.6801 27.001 30.8333 27H9.24992ZM20.0416 21C20.4784 21 20.8448 20.856 21.1408 20.568C21.4368 20.28 21.5843 19.924 21.5833 19.5C21.5833 19.075 21.4353 18.7185 21.1393 18.4305C20.8433 18.1425 20.4774 17.999 20.0416 18H10.7916C10.3548 18 9.98838 18.144 9.69238 18.432C9.39638 18.72 9.24889 19.076 9.24992 19.5C9.24992 19.925 9.39792 20.2815 9.69392 20.5695C9.98992 20.8575 10.3558 21.001 10.7916 21H20.0416ZM26.2083 16.5C26.6451 16.5 27.0115 16.356 27.3075 16.068C27.6035 15.78 27.7509 15.424 27.7499 15C27.7499 14.575 27.6019 14.2185 27.3059 13.9305C27.0099 13.6425 26.644 13.499 26.2083 13.5H10.7916C10.3548 13.5 9.98838 13.644 9.69238 13.932C9.39638 14.22 9.24889 14.576 9.24992 15C9.24992 15.425 9.39792 15.7815 9.69392 16.0695C9.98992 16.3575 10.3558 16.501 10.7916 16.5H26.2083ZM23.1249 9H10.7916C10.3548 9 9.98838 9.144 9.69238 9.432C9.39638 9.72 9.24889 10.076 9.24992 10.5C9.24992 10.925 9.39792 11.2815 9.69392 11.5695C9.98992 11.8575 10.3558 12.001 10.7916 12H27.7499V11.85C26.7992 11.65 25.9318 11.306 25.1476 10.818C24.3634 10.33 23.6892 9.724 23.1249 9ZM29.2916 9C28.0069 9 26.9149 8.5625 26.0155 7.6875C25.1162 6.8125 24.6666 5.75 24.6666 4.5C24.6666 3.25 25.1162 2.1875 26.0155 1.3125C26.9149 0.4375 28.0069 0 29.2916 0C30.5763 0 31.6683 0.4375 32.5676 1.3125C33.4669 2.1875 33.9166 3.25 33.9166 4.5C33.9166 5.75 33.4669 6.8125 32.5676 7.6875C31.6683 8.5625 30.5763 9 29.2916 9Z" fill="#C7C6C5"/>
</g>
<defs>
<clipPath id="clip0_179_994">
<rect width="37" height="36" rx="15" fill="white"/>
</clipPath>
</defs>
</svg>
