<svg width="21" height="35" viewBox="0 0 21 35" fill="none" xmlns="http://www.w3.org/2000/svg">
<g clip-path="url(#clip0_90_49)">
<path d="M12.6875 31.5C12.6875 30.8984 12.4733 30.3835 12.0449 29.9551C11.6165 29.5267 11.1016 29.3125 10.5 29.3125C9.89844 29.3125 9.38346 29.5267 8.95508 29.9551C8.52669 30.3835 8.3125 30.8984 8.3125 31.5C8.3125 32.1016 8.52669 32.6165 8.95508 33.0449C9.38346 33.4733 9.89844 33.6875 10.5 33.6875C11.1016 33.6875 11.6165 33.4733 12.0449 33.0449C12.4733 32.6165 12.6875 32.1016 12.6875 31.5ZM18.375 27.125V7.875C18.375 7.63802 18.2884 7.43294 18.1152 7.25977C17.9421 7.08659 17.737 7 17.5 7H3.5C3.26302 7 3.05794 7.08659 2.88477 7.25977C2.71159 7.43294 2.625 7.63802 2.625 7.875V27.125C2.625 27.362 2.71159 27.5671 2.88477 27.7402C3.05794 27.9134 3.26302 28 3.5 28H17.5C17.737 28 17.9421 27.9134 18.1152 27.7402C18.2884 27.5671 18.375 27.362 18.375 27.125ZM13.125 3.9375C13.125 3.64583 12.9792 3.5 12.6875 3.5H8.3125C8.02083 3.5 7.875 3.64583 7.875 3.9375C7.875 4.22917 8.02083 4.375 8.3125 4.375H12.6875C12.9792 4.375 13.125 4.22917 13.125 3.9375ZM21 3.5V31.5C21 32.4479 20.6536 33.2682 19.9609 33.9609C19.2682 34.6536 18.4479 35 17.5 35H3.5C2.55208 35 1.73177 34.6536 1.03906 33.9609C0.346354 33.2682 0 32.4479 0 31.5V3.5C0 2.55208 0.346354 1.73177 1.03906 1.03906C1.73177 0.346354 2.55208 0 3.5 0H17.5C18.4479 0 19.2682 0.346354 19.9609 1.03906C20.6536 1.73177 21 2.55208 21 3.5Z" fill="white"/>
</g>
<defs>
<clipPath id="clip0_90_49">
<rect width="21" height="35" fill="white"/>
</clipPath>
</defs>
</svg>
