<svg width="348" height="61" viewBox="0 0 348 61" fill="none" xmlns="http://www.w3.org/2000/svg">
<path d="M1 30.5C1 14.2076 14.2076 1 30.5 1H123.269C131.234 1 138.873 4.16778 144.5 9.80502L154.022 19.3435C165.501 30.8423 184.049 31.1128 195.858 19.9536L207.244 9.19492C212.813 3.93213 220.185 1 227.848 1H317.138C333.431 1 346.638 14.2076 346.638 30.5C346.638 46.7924 333.431 60 317.138 60H30.5C14.2076 60 1 46.7924 1 30.5Z" fill="white"/>
<path d="M30.5 0.5C13.9315 0.5 0.5 13.9315 0.5 30.5C0.5 47.0685 13.9314 60.5 30.5 60.5H317.138C333.707 60.5 347.138 47.0685 347.138 30.5C347.138 13.9315 333.707 0.5 317.138 0.5H227.848C220.058 0.5 212.563 3.481 206.9 8.8315L195.515 19.5901C183.902 30.5634 165.664 30.2974 154.376 18.9902L144.854 9.45177C139.133 3.72058 131.367 0.5 123.269 0.5H30.5Z" stroke="black" stroke-opacity="0.13"/>
</svg>
