<svg width="33" height="36" viewBox="0 0 33 36" fill="none" xmlns="http://www.w3.org/2000/svg">
<path d="M19.0782 33H13.922C13.5782 33 13.2803 32.875 13.0282 32.625C12.7761 32.375 12.6272 32.0625 12.5813 31.6875L12.1688 28.2C11.8709 28.075 11.59 27.925 11.326 27.75C11.062 27.575 10.8044 27.3875 10.5532 27.1875L7.5626 28.5375C7.24176 28.6625 6.92093 28.675 6.6001 28.575C6.27926 28.475 6.02718 28.2625 5.84385 27.9375L3.3001 23.1C3.11676 22.775 3.05947 22.425 3.12822 22.05C3.19697 21.675 3.36885 21.375 3.64385 21.15L6.22197 19.0125C6.19906 18.8375 6.1876 18.6685 6.1876 18.5055V17.4945C6.1876 17.3315 6.19906 17.1625 6.22197 16.9875L3.64385 14.85C3.36885 14.625 3.19697 14.325 3.12822 13.95C3.05947 13.575 3.11676 13.225 3.3001 12.9L5.84385 8.0625C6.00426 7.7125 6.25039 7.4935 6.58222 7.4055C6.91406 7.3175 7.24085 7.3365 7.5626 7.4625L10.5532 8.8125C10.8053 8.6125 11.0688 8.425 11.3438 8.25C11.6188 8.075 11.8938 7.925 12.1688 7.8L12.5813 4.3125C12.6272 3.9375 12.7761 3.625 13.0282 3.375C13.2803 3.125 13.5782 3 13.922 3H19.0782C19.422 3 19.7199 3.125 19.972 3.375C20.2241 3.625 20.373 3.9375 20.4188 4.3125L20.8313 7.8C21.1293 7.925 21.4102 8.075 21.6742 8.25C21.9382 8.425 22.1958 8.6125 22.447 8.8125L25.4376 7.4625C25.7584 7.3375 26.0793 7.325 26.4001 7.425C26.7209 7.525 26.973 7.7375 27.1563 8.0625L29.7001 12.9C29.8834 13.225 29.9407 13.575 29.872 13.95C29.8032 14.325 29.6314 14.625 29.3563 14.85L26.7782 16.9875C26.8011 17.1625 26.8126 17.3315 26.8126 17.4945V18.5055C26.8126 18.6685 26.7897 18.8375 26.7439 19.0125L29.322 21.15C29.597 21.375 29.7689 21.675 29.8376 22.05C29.9064 22.425 29.8491 22.775 29.6657 23.1L27.122 27.9C26.9386 28.225 26.6806 28.444 26.3479 28.557C26.0151 28.67 25.6888 28.6635 25.3689 28.5375L22.447 27.1875C22.1949 27.3875 21.9313 27.575 21.6563 27.75C21.3813 27.925 21.1063 28.075 20.8313 28.2L20.4188 31.6875C20.373 32.0625 20.2241 32.375 19.972 32.625C19.7199 32.875 19.422 33 19.0782 33ZM16.5688 23.25C17.898 23.25 19.0324 22.7375 19.972 21.7125C20.9116 20.6875 21.3813 19.45 21.3813 18C21.3813 16.55 20.9116 15.3125 19.972 14.2875C19.0324 13.2625 17.898 12.75 16.5688 12.75C15.2168 12.75 14.0764 13.2625 13.1478 14.2875C12.2193 15.3125 11.7554 16.55 11.7563 18C11.7563 19.45 12.2202 20.6875 13.1478 21.7125C14.0755 22.7375 15.2158 23.25 16.5688 23.25Z" fill="#81D5D0"/>
</svg>
