<svg width="30" height="28" viewBox="0 0 30 28" fill="none" xmlns="http://www.w3.org/2000/svg">
<path d="M13.75 20.2841H16.25V18.0303H13.75V20.2841ZM15 2.25378C13.3585 2.25378 11.733 2.54526 10.2165 3.11158C8.69989 3.6779 7.3219 4.50796 6.16117 5.55438C3.81696 7.66772 2.5 10.534 2.5 13.5227C2.5 16.5114 3.81696 19.3777 6.16117 21.4911C7.3219 22.5375 8.69989 23.3676 10.2165 23.9339C11.733 24.5002 13.3585 24.7917 15 24.7917C18.3152 24.7917 21.4946 23.6044 23.8388 21.4911C26.183 19.3777 27.5 16.5114 27.5 13.5227C27.5 12.0429 27.1767 10.5775 26.5485 9.21029C25.9203 7.84308 24.9996 6.6008 23.8388 5.55438C22.6781 4.50796 21.3001 3.6779 19.7835 3.11158C18.267 2.54526 16.6415 2.25378 15 2.25378ZM15 22.5379C9.4875 22.5379 5 18.4923 5 13.5227C5 8.55312 9.4875 4.50757 15 4.50757C20.5125 4.50757 25 8.55312 25 13.5227C25 18.4923 20.5125 22.5379 15 22.5379ZM15 6.76136C13.6739 6.76136 12.4021 7.23626 11.4645 8.0816C10.5268 8.92693 10 10.0735 10 11.2689H12.5C12.5 10.6712 12.7634 10.0979 13.2322 9.67527C13.7011 9.2526 14.337 9.01515 15 9.01515C15.663 9.01515 16.2989 9.2526 16.7678 9.67527C17.2366 10.0979 17.5 10.6712 17.5 11.2689C17.5 13.5227 13.75 13.241 13.75 16.9034H16.25C16.25 14.3679 20 14.0862 20 11.2689C20 10.0735 19.4732 8.92693 18.5355 8.0816C17.5979 7.23626 16.3261 6.76136 15 6.76136Z" fill="#64CCC5"/>
</svg>
