<svg width="29" height="28" viewBox="0 0 29 28" fill="none" xmlns="http://www.w3.org/2000/svg">
<path d="M13.1699 14.0814L7.12332 14.1647M26.5394 13.2112C26.6671 13.2721 26.7742 13.3681 26.8483 13.4884C26.9225 13.6087 26.9607 13.7484 26.9586 13.8914C26.9565 14.0345 26.9143 14.1752 26.8366 14.2974C26.7589 14.4197 26.649 14.5186 26.5195 14.5828L3.33523 25.9914C3.1966 26.0596 3.04183 26.085 2.891 26.0645C2.74016 26.044 2.60022 25.9785 2.48932 25.8764C2.37843 25.7743 2.30169 25.6404 2.26908 25.492C2.23647 25.3437 2.24948 25.1877 2.30643 25.0443L6.50583 14.4463C6.57584 14.2695 6.57852 14.0749 6.51335 13.9L2.60526 3.41258C2.55272 3.2709 2.54432 3.11555 2.58115 2.96659C2.61797 2.81763 2.69833 2.68191 2.81184 2.57696C2.92535 2.47202 3.06679 2.40266 3.2179 2.37786C3.36901 2.35306 3.52284 2.37395 3.65951 2.43784L26.5394 13.2112Z" stroke="#64CCC5" stroke-width="3.4751" stroke-linecap="round" stroke-linejoin="round"/>
</svg>
